<?xml version="1.0" encoding="UTF-8" standalone="no"?>
<!-- Created with Inkscape (http://www.inkscape.org/) -->

<svg
   xmlns:dc="http://purl.org/dc/elements/1.1/"
   xmlns:cc="http://creativecommons.org/ns#"
   xmlns:rdf="http://www.w3.org/1999/02/22-rdf-syntax-ns#"
   xmlns:svg="http://www.w3.org/2000/svg"
   xmlns="http://www.w3.org/2000/svg"
   xmlns:sodipodi="http://sodipodi.sourceforge.net/DTD/sodipodi-0.dtd"
   xmlns:inkscape="http://www.inkscape.org/namespaces/inkscape"
   width="16"
   height="16"
   viewBox="0 0 4.2333332 4.2333335"
   version="1.1"
   id="svg5171"
   sodipodi:docname="Favicon16x16.svg"
   inkscape:export-filename="/home/bonafe/Ãrea de Trabalho/morrotorto.org/imagens/Favicon16x16.png"
   inkscape:export-xdpi="96"
   inkscape:export-ydpi="96"
   inkscape:version="0.92.5 (2060ec1f9f, 2020-04-08)">
  <defs
     id="defs5165">
    <inkscape:path-effect
       effect="spiro"
       id="path-effect5034"
       is_visible="true" />
    <inkscape:path-effect
       effect="spiro"
       id="path-effect4973"
       is_visible="true" />
  </defs>
  <sodipodi:namedview
     id="base"
     pagecolor="#ffffff"
     bordercolor="#666666"
     borderopacity="1.0"
     inkscape:pageopacity="0.0"
     inkscape:pageshadow="2"
     inkscape:zoom="31.678384"
     inkscape:cx="10.814479"
     inkscape:cy="9.0831497"
     inkscape:document-units="mm"
     inkscape:current-layer="layer1"
     showgrid="false"
     units="px"
     inkscape:window-width="1920"
     inkscape:window-height="1043"
     inkscape:window-x="3840"
     inkscape:window-y="0"
     inkscape:window-maximized="1" />
  <metadata
     id="metadata5168">
    <rdf:RDF>
      <cc:Work
         rdf:about="">
        <dc:format>image/svg+xml</dc:format>
        <dc:type
           rdf:resource="http://purl.org/dc/dcmitype/StillImage" />
        <dc:title></dc:title>
      </cc:Work>
    </rdf:RDF>
  </metadata>
  <g
     inkscape:label="Layer 1"
     inkscape:groupmode="layer"
     id="layer1"
     transform="translate(0,-292.76665)">
    <circle
       style="display:inline;opacity:1;fill:#ffffff;fill-opacity:1;stroke:#000000;stroke-width:0.02179836;stroke-miterlimit:4;stroke-dasharray:none;stroke-opacity:1"
       id="path5147"
       cx="2.0963964"
       cy="294.88693"
       r="2.0456288" />
    <g
       id="g5030"
       transform="matrix(0.01514386,0,0,0.01514386,0.27533375,292.50512)"
       inkscape:export-xdpi="96"
       inkscape:export-ydpi="96">
      <ellipse
         ry="18.776379"
         rx="19.62985"
         cy="116.10484"
         cx="96.866547"
         id="path4986"
         style="display:inline;opacity:1;fill:#f3ff10;fill-opacity:1;stroke:#000000;stroke-width:1.87800002;stroke-miterlimit:4;stroke-dasharray:none;stroke-opacity:1" />
      <path
         transform="matrix(0.80643005,0,0,0.80643005,15.786739,25.099215)"
         sodipodi:nodetypes="sssscsssssssssssssssssssssssssscsss"
         inkscape:original-d="m 61.365082,143.96147 c -3.004958,4.37353 9.728877,9.72834 14.592916,14.59291 4.864042,4.86457 1.746427,8.48109 2.619243,12.72203 0.872815,4.24094 -5.737122,11.97341 -8.606079,17.96051 -2.868959,5.98711 -10.975604,3.74151 -16.463803,5.61266 -5.488199,1.87116 -9.728346,-18.95858 -14.592916,-28.43747 -4.864571,-9.4789 8.980521,-28.6872 13.470384,-43.0304 4.489863,-14.3432 14.717906,-17.71132 22.076463,-26.566587 7.358557,-8.855265 17.960776,-11.475037 26.94077,-17.212156 8.97999,-5.737122 15.21681,-0.998072 22.82481,-1.496711 7.60801,-0.498639 18.95859,8.730541 28.43748,13.096208 9.4789,4.365665 18.94506,3.451465 27.92505,3.701182 8.97999,0.249716 14.73143,-10.43664 22.58889,-14.178148 7.85746,-3.741509 3.49259,-19.457487 5.23848,-29.185832 1.7459,-9.728346 -4.98876,-13.470649 -7.48354,-20.205576 C 198.43845,24.599162 178.10301,22.177765 166.6875,17.6 155.27199,13.022235 127.87264,22.001686 108.11682,26.058896 88.360999,30.116104 77.964154,41.059456 58.208333,52.525 38.452512,63.990542 30.868321,79.688623 22.225,87.45 c -8.64332,7.761375 -12.6997355,20.46085 -19.05,30.69167 -6.3502645,10.23081 5.2919311,82.90251 7.9375,124.35416 2.645569,41.45167 28.575264,28.22197 42.862499,42.33334 14.287236,14.11136 47.978041,14.8164 71.966671,22.225 23.98862,7.40859 52.56415,-14.46417 78.84583,-21.69584 26.28168,-7.23167 16.9336,-31.75026 25.4,-47.625 8.4664,-15.87473 -15.16918,-30.33915 -22.75417,-45.50833 -7.58499,-15.16918 -36.68862,-5.29193 -55.03333,-7.9375 -18.34471,-2.64557 -21.51918,5.64418 -32.27917,8.46667 -10.75999,2.82248 -14.11084,-4.58638 -21.166665,-6.87917 -7.055821,-2.29279 -0.705291,-19.75582 -1.058333,-29.63333 -0.353041,-9.87752 21.872488,-5.99749 32.808338,-8.99584 10.93584,-2.99835 -3.17474,-6.35026 -4.7625,-9.525 -1.58777,-3.17473 -19.40252,3.52752 -29.104171,5.29167 -9.701654,1.76415 -17.638625,-8.11415 -26.458333,-12.17083 -8.819708,-4.05669 -6.009124,8.74626 -9.014084,13.1198 z"
         inkscape:path-effect="#path-effect4973"
         inkscape:connector-curvature="0"
         id="path4971"
         d="m 61.365082,143.96147 c 0.549239,1.65467 1.547816,3.13465 2.737367,4.40923 1.18955,1.27458 2.569763,2.35587 3.981087,3.37947 2.822649,2.0472 5.86528,3.95438 7.874462,6.80421 1.27512,1.80864 2.072573,3.92974 2.465217,6.10756 0.392644,2.17783 0.389624,4.41411 0.154026,6.61447 -0.721408,6.73758 -3.715245,13.27061 -8.606079,17.96051 -2.177835,2.08836 -4.730513,3.81567 -7.562182,4.85772 -2.83167,1.04204 -5.949589,1.37922 -8.901621,0.75494 -2.846637,-0.60199 -5.476216,-2.08488 -7.591421,-4.08279 -2.115206,-1.9979 -3.726969,-4.49747 -4.844766,-7.18378 -2.235594,-5.37262 -2.495169,-11.36156 -2.156729,-17.1709 0.882633,-15.15042 5.670516,-30.01209 13.470384,-43.0304 5.938169,-9.91106 13.573261,-18.74441 22.076463,-26.566587 7.901736,-7.268883 16.761961,-13.796612 26.94077,-17.212156 7.32035,-2.456375 15.29871,-3.222714 22.82481,-1.496711 10.19945,2.339099 18.82161,8.96883 28.43748,13.096208 8.75368,3.757304 18.55451,5.415021 27.92505,3.701182 8.98453,-1.64324 17.5285,-6.574565 22.58889,-14.178148 2.79765,-4.203659 4.4771,-9.094236 5.23955,-14.085857 0.76245,-4.991621 0.6295,-10.089987 -0.001,-15.099975 C 207.5084,44.322587 205.46296,37.025563 200.93323,31.33409 196.9847,26.372884 191.35534,22.929774 185.36733,20.844562 179.37931,18.75935 173.01812,17.957288 166.6875,17.6 146.86985,16.481531 126.89762,19.634598 108.11682,26.058896 90.228429,32.177929 73.381765,41.246521 58.208333,52.525 44.753906,62.525735 32.590138,74.274256 22.225,87.45 c -7.462101,9.485521 -14.0034383,19.72854 -19.05,30.69167 -9.0519019,19.66432 -13.1649525,41.58602 -11.8037086,63.19087 1.3612438,21.60484 8.1993258,42.84916 19.7412086,61.16329 10.798785,17.13501 25.65406,31.65195 42.862499,42.33334 21.55076,13.3767 46.648861,20.68238 71.966671,22.225 13.92708,0.84858 28.02285,-0.0186 41.55093,-3.43542 13.52807,-3.41684 26.4879,-9.43476 37.2949,-18.26042 7.18535,-5.868 13.40381,-12.97823 17.89395,-21.09619 4.49014,-8.11797 7.22299,-17.25613 7.50605,-26.52881 0.53904,-17.65828 -8.33099,-35.3065 -22.75417,-45.50833 -7.8196,-5.53097 -17.07814,-8.92409 -26.57643,-10.15703 -9.4983,-1.23295 -19.22637,-0.33686 -28.4569,2.21953 -10.76096,2.98025 -21.11573,8.22641 -32.27917,8.46667 -7.57015,0.16292 -15.26409,-2.13646 -21.166665,-6.87917 -4.584605,-3.68372 -8.084959,-8.9935 -8.624183,-14.84992 -0.269611,-2.92821 0.213946,-5.94063 1.512514,-8.57897 1.298568,-2.63834 3.425571,-4.88461 6.053336,-6.20444 2.721618,-1.36697 5.850038,-1.70808 8.894998,-1.64411 3.04495,0.064 6.07076,0.50917 9.11442,0.61852 3.04366,0.10936 6.17053,-0.13607 8.95054,-1.38001 1.39001,-0.62197 2.67758,-1.49259 3.70989,-2.6121 1.03231,-1.11951 1.80342,-2.49265 2.13849,-3.97814 0.4206,-1.86468 0.13336,-3.87008 -0.73982,-5.57052 -0.87317,-1.70045 -2.31739,-3.09082 -4.02268,-3.95448 -2.25945,-1.14432 -4.9062,-1.35777 -7.41279,-0.99495 -2.50658,0.36281 -4.90098,1.27021 -7.22456,2.27797 -2.32358,1.00776 -4.60562,2.12424 -7.0036,2.93927 -2.39798,0.81504 -4.943429,1.32481 -7.463221,1.06938 -2.462099,-0.24958 -4.804671,-1.22077 -6.939261,-2.47287 -2.134591,-1.25209 -4.087888,-2.78542 -6.06978,-4.26742 -1.981892,-1.482 -4.013644,-2.92578 -6.257082,-3.97039 -2.243438,-1.0446 -4.727158,-1.67864 -7.19221,-1.46015 -3.037748,0.26926 -5.945292,1.89884 -7.694232,4.39716 -1.74894,2.49833 -2.28059,5.82827 -1.319852,8.72264 z"
         style="display:inline;fill:#008e0e;fill-opacity:1;stroke:#000000;stroke-width:2.86819673;stroke-linecap:butt;stroke-linejoin:miter;stroke-miterlimit:4;stroke-dasharray:none;stroke-opacity:1" />
      <path
         sodipodi:nodetypes="cscscsccc"
         inkscape:connector-curvature="0"
         d="M 171.66983,78.451961 C 159.47677,103.62077 147.92196,78.09429 122.08893,74.742818 96.895189,71.474284 49.943891,102.26079 40.987641,133.56408 29.817204,166.70322 39.51877,211.65125 69.041816,202.103 112.35898,188.0935 180.96533,176.51405 179.60257,218.79141 166.7804,278.25968 71.99849,260.23589 46.840983,230.66152 11.804318,189.47353 20.796804,153.75126 22.949891,141.70551 40.844183,70.777842 132.94348,33.597891 167.874,56.325791 c 9.30812,6.226425 5.035,18.693889 3.79583,22.12617 z"
         id="path4966"
         style="fill:#3ac2ff;fill-opacity:1;stroke:none;stroke-width:0.21336794px;stroke-linecap:butt;stroke-linejoin:miter;stroke-opacity:1" />
    </g>
    <path
       style="fill:none;stroke:none;stroke-width:0.26458332px;stroke-linecap:butt;stroke-linejoin:miter;stroke-opacity:1"
       d="M 28.575,238.26248 C 6.4059182,210.69351 -3.7926497,173.82177 1.0583333,138.77916 5.5173459,106.56807 22.446367,76.38027 47.095833,55.170823 54.858692,48.491329 63.330515,42.683204 71.966665,37.179157 92.496762,24.094784 115.08439,12.359277 139.41819,11.616456 c 12.16691,-0.37141 24.55367,2.142833 35.10908,8.205394 10.55541,6.062561 19.15438,15.814068 22.85189,27.411474 2.55773,8.02242 2.73075,16.788981 0.49155,24.906074 -2.2392,8.117092 -6.88243,15.555034 -13.19155,21.131426"
       id="path5032"
       inkscape:connector-curvature="0"
       inkscape:path-effect="#path-effect5034"
       inkscape:original-d="M 28.575,238.26248 C 28.222487,220.09417 1.4113757,156.94695 1.0583333,138.77916 0.70529097,120.61137 40.39332,75.984448 47.095833,55.170823 53.798345,34.357201 55.739153,49.878892 71.966665,37.179157 88.194178,24.479422 159.27943,51.290005 197.37916,47.233324 c 38.09974,-4.056679 -18.87334,40.392791 -12.7,46.0375"
       sodipodi:nodetypes="cssssc"
       transform="matrix(0.01160722,0,0,0.01160722,0.19849807,293.29971)"
       inkscape:export-xdpi="96"
       inkscape:export-ydpi="96" />
  </g>
</svg>
